<?xml version="1.0" standalone="no"?>
<!DOCTYPE svg PUBLIC "-//W3C//DTD SVG 20010904//EN"
 "http://www.w3.org/TR/2001/REC-SVG-20010904/DTD/svg10.dtd">
<svg version="1.0" xmlns="http://www.w3.org/2000/svg"
 width="144.000000pt" height="144.000000pt" viewBox="0 0 144.000000 144.000000"
 preserveAspectRatio="xMidYMid meet">

<g transform="translate(0.000000,144.000000) scale(0.100000,-0.100000)"
fill="#000000" stroke="none">
<path d="M360 1110 l0 -50 -135 0 -135 0 0 -335 0 -335 135 0 135 0 0 -45 0
-45 120 0 120 0 0 65 c0 56 4 71 30 106 40 55 48 114 23 170 -11 24 -27 50
-36 58 -18 14 -22 31 -9 31 5 0 45 -52 91 -115 l82 -115 77 0 77 0 80 115 c44
63 83 114 88 115 4 0 7 -97 7 -215 l0 -215 120 0 120 0 0 430 0 430 -99 0 -99
0 -143 -204 c-79 -113 -147 -205 -151 -205 -4 -1 -71 91 -150 204 l-143 204
-102 1 -103 0 0 -50z m0 -250 l0 -60 -40 0 -40 0 0 60 0 60 40 0 40 0 0 -60z
m0 -265 l0 -65 -40 0 -40 0 0 65 0 65 40 0 40 0 0 -65z"/>
</g>
</svg>
